 <svg  version="1.0" xmlns="http://www.w3.org/2000/svg"  width="900.000000pt" height="900.000000pt" viewBox="0 0 900.000000 900.000000"  preserveAspectRatio="xMidYMid meet">  <g transform="translate(0.000000,900.000000) scale(0.100000,-0.100000)" fill="#407c80" stroke="none"> <path d="M3775 8404 c-172 -24 -288 -45 -341 -60 -28 -8 -59 -14 -70 -14 -10 0 -39 -6 -64 -14 -25 -8 -72 -22 -105 -31 -100 -29 -158 -47 -200 -62 -22 -9 -58 -22 -80 -30 -22 -8 -53 -21 -68 -29 -16 -8 -33 -14 -38 -14 -18 0 -259 -116 -375 -181 -449 -249 -842 -593 -1150 -1004 -114 -152 -178 -249 -280 -430 -19 -33 -110 -216 -137 -275 -34 -76 -69 -164 -111 -277 -31 -87 -38 -110 -46 -143 -5 -19 -18 -66 -30 -105 -11 -38 -24 -90 -29 -115 -5 -25 -13 -65 -19 -90 -26 -107 -42 -197 -42 -230 0 -19 -7 -73 -15 -120 -11 -63 -15 -165 -15 -395 0 -304 8 -419 42 -600 6 -33 14 -82 18 -110 13 -93 66 -293 117 -440 14 -38 28 -83 32 -100 5 -16 14 -43 21 -60 55 -132 64 -152 100 -230 17 -38 36 -77 40 -85 5 -8 27 -51 50 -95 23 -44 50 -93 61 -110 10 -16 23 -39 29 -50 6 -11 19 -33 30 -50 10 -16 25 -40 32 -52 33 -56 134 -196 203 -283 82 -102 300 -345 326 -364 9 -6 56 -48 105 -93 89 -82 184 -159 271 -221 25 -18 69 -49 97 -70 27 -20 58 -41 67 -47 10 -5 69 -41 131 -78 62 -37 120 -72 128 -77 41 -24 261 -129 328 -157 17 -7 47 -19 65 -27 17 -7 50 -20 72 -28 22 -8 56 -21 75 -28 19 -7 60 -15 91 -17 67 -5 119 17 177 75 88 88 105 168 100 477 l-3 220 -32 3 c-17 2 -65 -4 -107 -12 -159 -33 -440 -17 -602 34 -259 82 -493 272 -593 485 -156 330 -223 424 -382 546 -135 102 -158 149 -95 188 27 17 50 21 116 21 219 0 443 -138 585 -360 133 -208 313 -322 593 -374 152 -29 370 -13 478 34 l41 18 7 144 c7 138 22 222 52 281 27 54 18 67 -56 78 -60 9 -170 35 -255 60 -38 11 -83 24 -100 29 -40 11 -94 30 -130 45 -16 7 -50 20 -75 30 -48 19 -231 107 -265 128 -11 7 -39 24 -63 40 -24 15 -45 27 -48 27 -16 0 -219 165 -288 235 -72 71 -206 234 -206 249 0 3 -11 22 -25 42 -28 41 -114 218 -134 274 -72 207 -101 381 -101 604 0 232 40 489 96 624 8 18 14 40 14 48 0 9 6 28 13 42 8 15 21 43 30 62 30 69 59 125 78 155 10 17 23 39 29 50 25 49 129 189 185 249 38 40 41 70 12 105 -31 37 -65 166 -84 318 -27 218 3 414 91 591 54 110 66 122 130 122 197 0 499 -90 671 -200 17 -11 37 -23 45 -27 32 -14 178 -130 240 -190 63 -61 66 -63 105 -57 22 4 52 13 67 20 15 8 35 14 46 14 10 0 38 6 63 14 136 43 442 76 699 76 316 0 605 -37 821 -105 74 -24 90 -20 139 31 43 44 219 183 250 197 8 4 29 16 45 27 58 37 208 107 260 120 17 5 44 13 60 19 70 24 146 40 245 51 58 6 115 13 126 16 25 4 58 -19 79 -56 30 -54 85 -171 85 -181 0 -6 7 -32 15 -58 66 -210 50 -520 -37 -738 l-21 -52 44 -53 c24 -29 50 -59 58 -67 11 -12 79 -117 128 -196 19 -32 69 -135 93 -195 12 -30 28 -70 36 -88 8 -18 14 -40 14 -50 0 -9 6 -34 14 -57 65 -187 95 -584 62 -814 -33 -224 -102 -439 -189 -586 -6 -11 -25 -42 -41 -70 -114 -191 -351 -421 -568 -550 -102 -61 -335 -175 -358 -175 -5 0 -24 -6 -42 -14 -74 -31 -122 -47 -280 -90 -114 -32 -179 -46 -206 -46 -15 0 -36 -6 -46 -13 -16 -12 -16 -15 4 -62 46 -107 51 -186 57 -899 6 -752 1 -706 83 -799 69 -78 179 -109 262 -73 31 13 61 25 163 63 66 25 229 98 255 114 8 5 22 12 30 15 8 3 22 9 30 14 8 5 35 19 60 32 25 12 82 45 128 73 45 27 90 55 100 60 84 50 316 221 417 309 142 123 297 277 405 405 25 29 53 63 64 75 43 49 189 250 221 304 6 9 23 36 38 60 15 23 37 59 48 80 11 20 29 51 39 67 23 38 119 231 154 310 15 33 33 73 41 88 8 16 15 35 15 42 0 7 6 26 14 42 26 52 46 104 46 118 0 8 6 29 14 47 7 18 20 58 29 88 55 201 68 253 74 295 2 17 10 59 18 95 45 209 66 542 53 835 -9 225 -34 410 -84 635 -25 107 -71 272 -90 318 -8 18 -14 39 -14 47 0 8 -6 29 -14 47 -8 18 -22 53 -31 78 -9 25 -24 61 -32 80 -8 19 -21 49 -28 65 -33 78 -143 298 -182 363 -24 41 -43 75 -43 78 0 2 -20 33 -45 70 -25 36 -45 67 -45 70 0 6 -197 267 -236 313 -174 205 -391 413 -589 563 -66 49 -271 190 -295 201 -8 4 -28 16 -45 27 -16 11 -39 24 -50 30 -11 6 -47 26 -80 45 -76 42 -201 103 -315 152 -19 9 -48 22 -63 29 -16 8 -36 14 -46 14 -9 0 -22 5 -28 11 -6 6 -26 14 -44 19 -19 5 -65 19 -104 33 -217 74 -445 125 -720 161 -157 21 -711 21 -860 0z"/> </g> </svg> 